<svg xmlns="http://www.w3.org/2000/svg" width="820" height="215" viewBox="0 0 820 215" role="img" aria-label="Most Used Languages and Time by Language">
<style>
.title { font: 700 18px "Segoe UI", Ubuntu, Arial, sans-serif; fill: #2563EB; }
.label { font: 600 11.5px "Segoe UI", Ubuntu, Arial, sans-serif; fill: #1F2937; }
.dot { }
</style>
<rect width="100%" height="100%" fill="transparent"/>
<text x="28" y="28" class="title">Most Used Languages</text>
<text x="348" y="28" class="title">Time by Language</text>
<rect x="28" y="58" width="250" height="8" rx="4" fill="rgba(255,255,255,0.08)" opacity="0.0"/>
<rect x="28.00" y="58" width="116.38" height="8" rx="0" fill="#3572A5"/>
<rect x="144.38" y="58" width="85.98" height="8" rx="0" fill="#3178c6"/>
<rect x="230.36" y="58" width="44.44" height="8" rx="0" fill="#62A8D6"/>
<rect x="274.80" y="58" width="0.92" height="8" rx="0" fill="#f1e05a"/>
<rect x="275.73" y="58" width="0.92" height="8" rx="0" fill="#663399"/>
<rect x="276.65" y="58" width="0.80" height="8" rx="0" fill="#89e051"/>
<rect x="277.45" y="58" width="0.40" height="8" rx="0" fill="#012456"/>
<rect x="277.85" y="58" width="0.15" height="8" rx="0" fill="#C1F12E"/>
<rect x="28" y="58" width="250" height="8" rx="4" fill="none" stroke="transparent"/>
<rect x="348.00" y="58" width="160.45" height="8" rx="0" fill="#3572A5"/>
<rect x="508.45" y="58" width="123.59" height="8" rx="0" fill="#858585"/>
<rect x="632.05" y="58" width="63.21" height="8" rx="0" fill="#3178c6"/>
<rect x="695.26" y="58" width="40.70" height="8" rx="0" fill="#858585"/>
<rect x="735.96" y="58" width="17.85" height="8" rx="0" fill="#083fa1"/>
<rect x="753.81" y="58" width="10.01" height="8" rx="0" fill="#858585"/>
<rect x="763.82" y="58" width="8.84" height="8" rx="0" fill="#292929"/>
<rect x="772.66" y="58" width="6.00" height="8" rx="0" fill="#e34c26"/>
<rect x="778.66" y="58" width="5.09" height="8" rx="0" fill="#F44D27"/>
<rect x="783.75" y="58" width="4.25" height="8" rx="0" fill="#cb171e"/>
<rect x="348" y="58" width="440" height="8" rx="4" fill="none" stroke="transparent"/>
<circle cx="33" cy="96" r="5" fill="#3572A5"/>
<text x="46" y="100" class="label">Python 46.56%</text>
<circle cx="33" cy="124" r="5" fill="#3178c6"/>
<text x="46" y="128" class="label">TypeScript 34.40%</text>
<circle cx="33" cy="152" r="5" fill="#62A8D6"/>
<text x="46" y="156" class="label">MQL4 17.78%</text>
<circle cx="33" cy="180" r="5" fill="#f1e05a"/>
<text x="46" y="184" class="label">JavaScript 0.37%</text>
<circle cx="183" cy="96" r="5" fill="#663399"/>
<text x="196" y="100" class="label">CSS 0.37%</text>
<circle cx="183" cy="124" r="5" fill="#89e051"/>
<text x="196" y="128" class="label">Shell 0.32%</text>
<circle cx="183" cy="152" r="5" fill="#012456"/>
<text x="196" y="156" class="label">PowerShell 0.16%</text>
<circle cx="183" cy="180" r="5" fill="#C1F12E"/>
<text x="196" y="184" class="label">Batchfile 0.06%</text>
<circle cx="353" cy="96" r="5" fill="#3572A5"/>
<text x="366" y="100" class="label">Python - 32 hrs 4 mins</text>
<circle cx="353" cy="124" r="5" fill="#3178c6"/>
<text x="366" y="128" class="label">TypeScript - 12 hrs 38 mins</text>
<circle cx="353" cy="152" r="5" fill="#083fa1"/>
<text x="366" y="156" class="label">Markdown - 3 hrs 34 mins</text>
<circle cx="353" cy="180" r="5" fill="#292929"/>
<text x="366" y="184" class="label">JSON - 1 hr 46 mins</text>
<circle cx="353" cy="208" r="5" fill="#F44D27"/>
<text x="366" y="212" class="label">Git Config - 1 hr 1 min</text>
<circle cx="563" cy="96" r="5" fill="#858585"/>
<text x="576" y="100" class="label">Other - 24 hrs 42 mins</text>
<circle cx="563" cy="124" r="5" fill="#858585"/>
<text x="576" y="128" class="label">MQL - 8 hrs 8 mins</text>
<circle cx="563" cy="152" r="5" fill="#858585"/>
<text x="576" y="156" class="label">Bash - 2 hrs</text>
<circle cx="563" cy="180" r="5" fill="#e34c26"/>
<text x="576" y="184" class="label">HTML - 1 hr 12 mins</text>
<circle cx="563" cy="208" r="5" fill="#cb171e"/>
<text x="576" y="212" class="label">YAML - 51 mins</text>
</svg>