<svg xmlns="http://www.w3.org/2000/svg" width="820" height="245" viewBox="0 0 820 245" role="img" aria-label="Most Used Languages and Time by Language">
<style>
.title { font: 700 18px "Segoe UI", Arial, sans-serif; fill: #60dcf2; }
.label { font: 600 11.5px "Segoe UI", Arial, sans-serif; fill: #cfd5df; dominant-baseline: middle; }
</style>
<rect width="100%" height="100%" fill="transparent"/>
<text x="24" y="28" class="title">Most Used Languages</text>
<text x="352" y="28" class="title">Time by Language</text>
<rect x="24.00" y="60" width="121.96" height="8" fill="#3f79b2" rx="0"/>
<rect x="145.96" y="60" width="90.11" height="8" fill="#3b7fd1" rx="0"/>
<rect x="236.07" y="60" width="46.57" height="8" fill="#5fa6da" rx="0"/>
<rect x="282.65" y="60" width="0.97" height="8" fill="#f6dc4b" rx="0"/>
<rect x="283.62" y="60" width="0.97" height="8" fill="#6f39b1" rx="0"/>
<rect x="284.59" y="60" width="0.84" height="8" fill="#85dc45" rx="0"/>
<rect x="285.42" y="60" width="0.42" height="8" fill="#0a2f74" rx="0"/>
<rect x="285.84" y="60" width="0.16" height="8" fill="#c2f11b" rx="0"/>
<rect x="24" y="60" width="262" height="8" fill="none" rx="4" stroke="transparent"/>
<rect x="352.00" y="60" width="175.58" height="8" fill="#3f79b2" rx="0"/>
<rect x="527.58" y="60" width="132.84" height="8" fill="#8e8e8e" rx="0"/>
<rect x="660.41" y="60" width="65.18" height="8" fill="#3b7fd1" rx="0"/>
<rect x="725.59" y="60" width="41.63" height="8" fill="#8e8e8e" rx="0"/>
<rect x="767.23" y="60" width="19.54" height="8" fill="#1846a8" rx="0"/>
<rect x="786.76" y="60" width="10.24" height="8" fill="#8e8e8e" rx="0"/>
<rect x="797.00" y="60" width="9.04" height="8" fill="#2b2b2b" rx="0"/>
<rect x="806.05" y="60" width="6.14" height="8" fill="#ef5a2a" rx="0"/>
<rect x="812.19" y="60" width="5.20" height="8" fill="#ff5328" rx="0"/>
<rect x="817.39" y="60" width="4.61" height="8" fill="#d91621" rx="0"/>
<rect x="352" y="60" width="470" height="8" fill="none" rx="4" stroke="transparent"/>
<circle cx="29" cy="92" r="5.5" fill="#3f79b2"/>
<text x="42" y="93" class="label">Python 46.56%</text>
<circle cx="29" cy="120" r="5.5" fill="#3b7fd1"/>
<text x="42" y="121" class="label">TypeScript 34.40%</text>
<circle cx="29" cy="148" r="5.5" fill="#5fa6da"/>
<text x="42" y="149" class="label">MQL4 17.78%</text>
<circle cx="29" cy="176" r="5.5" fill="#f6dc4b"/>
<text x="42" y="177" class="label">JavaScript 0.37%</text>
<circle cx="181" cy="92" r="5.5" fill="#6f39b1"/>
<text x="194" y="93" class="label">CSS 0.37%</text>
<circle cx="181" cy="120" r="5.5" fill="#85dc45"/>
<text x="194" y="121" class="label">Shell 0.32%</text>
<circle cx="181" cy="148" r="5.5" fill="#0a2f74"/>
<text x="194" y="149" class="label">PowerShell 0.16%</text>
<circle cx="181" cy="176" r="5.5" fill="#c2f11b"/>
<text x="194" y="177" class="label">Batchfile 0.06%</text>
<circle cx="357" cy="92" r="5.5" fill="#3f79b2"/>
<text x="370" y="93" class="label">Python - 34 hrs 18 mins</text>
<circle cx="357" cy="120" r="5.5" fill="#3b7fd1"/>
<text x="370" y="121" class="label">TypeScript - 12 hrs 44 mins</text>
<circle cx="357" cy="148" r="5.5" fill="#1846a8"/>
<text x="370" y="149" class="label">Markdown - 3 hrs 49 mins</text>
<circle cx="357" cy="176" r="5.5" fill="#2b2b2b"/>
<text x="370" y="177" class="label">JSON - 1 hr 46 mins</text>
<circle cx="357" cy="204" r="5.5" fill="#ff5328"/>
<text x="370" y="205" class="label">Git Config - 1 hr 1 min</text>
<circle cx="570" cy="92" r="5.5" fill="#8e8e8e"/>
<text x="583" y="93" class="label">Other - 25 hrs 57 mins</text>
<circle cx="570" cy="120" r="5.5" fill="#8e8e8e"/>
<text x="583" y="121" class="label">MQL - 8 hrs 8 mins</text>
<circle cx="570" cy="148" r="5.5" fill="#8e8e8e"/>
<text x="583" y="149" class="label">Bash - 2 hrs</text>
<circle cx="570" cy="176" r="5.5" fill="#ef5a2a"/>
<text x="583" y="177" class="label">HTML - 1 hr 12 mins</text>
<circle cx="570" cy="204" r="5.5" fill="#d91621"/>
<text x="583" y="205" class="label">YAML - 54 mins</text>
</svg>