<svg xmlns="http://www.w3.org/2000/svg" width="780" height="170" viewBox="0 0 780 170" role="img" aria-label="Most used languages">
  <style>
    .label { font: 600 18px -apple-system,BlinkMacSystemFont,'Segoe UI',sans-serif; fill: #4b5563; }
    .value { font: 700 18px -apple-system,BlinkMacSystemFont,'Segoe UI',sans-serif; fill: #111827; }
  </style>
  <defs>
    <clipPath id="bar-clip">
      <rect x="0" y="8" width="780" height="22" rx="11" ry="11"/>
    </clipPath>
  </defs>
  <g clip-path="url(#bar-clip)">
    <rect x="0" y="8" width="780" height="22" fill="#e5e7eb"/>
    <rect x="0" y="8" width="334.07" height="22" fill="#3178C6"/>
    <rect x="334.07" y="8" width="264.42" height="22" fill="#FFD43B"/>
    <rect x="598.49" y="8" width="153.19" height="22" fill="#A855F7"/>
    <rect x="751.68" y="8" width="17.39" height="22" fill="#F97316"/>
    <rect x="769.07" y="8" width="4.13" height="22" fill="#8B5E3C"/>
    <rect x="773.20" y="8" width="3.51" height="22" fill="#1572B6"/>
    <rect x="776.71" y="8" width="3.29" height="22" fill="#F7DF1E"/>
  </g>

  <circle cx="12" cy="76" r="9" fill="#3178C6"/>
  <text x="36" y="82" class="label">TypeScript</text>
  <text x="154" y="82" class="value">42.83%</text>

  <circle cx="398" cy="76" r="9" fill="#F97316"/>
  <text x="422" y="82" class="label">HTML</text>
  <text x="494" y="82" class="value">2.23%</text>

  <circle cx="12" cy="118" r="9" fill="#FFD43B"/>
  <text x="36" y="124" class="label">Python</text>
  <text x="128" y="124" class="value">33.90%</text>

  <circle cx="398" cy="118" r="9" fill="#8B5E3C"/>
  <text x="422" y="124" class="label">Shell</text>
  <text x="498" y="124" class="value">0.53%</text>

  <circle cx="12" cy="160" r="9" fill="#A855F7"/>
  <text x="36" y="166" class="label">MQL4</text>
  <text x="105" y="166" class="value">19.64%</text>

  <circle cx="398" cy="160" r="9" fill="#1572B6"/>
  <text x="422" y="166" class="label">CSS</text>
  <text x="482" y="166" class="value">0.45%</text>

  <circle cx="618" cy="160" r="9" fill="#F7DF1E"/>
  <text x="642" y="166" class="label">JavaScript</text>
  <text x="758" y="166" text-anchor="end" class="value">0.43%</text>
</svg>
