<svg xmlns="http://www.w3.org/2000/svg" width="780" height="360" viewBox="0 0 780 360" role="img" aria-label="Most used languages graph">
  <style>
    .axis { font: 600 13px -apple-system,BlinkMacSystemFont,'Segoe UI',sans-serif; fill: #6b7280; }
    .label { font: 700 15px -apple-system,BlinkMacSystemFont,'Segoe UI',sans-serif; fill: #374151; }
    .value { font: 700 13px -apple-system,BlinkMacSystemFont,'Segoe UI',sans-serif; fill: #111827; }
    .grid { stroke: #dbe3ee; stroke-width: 1; stroke-dasharray: 3 4; }
    .axis-line { stroke: #cbd5e1; stroke-width: 1.5; }
  </style>
  <line x1="62" y1="32" x2="62" y2="226" class="axis-line"/>
  <line x1="62" y1="226" x2="760" y2="226" class="axis-line"/>

  <line x1="62" y1="54" x2="760" y2="54" class="grid"/>
  <line x1="62" y1="98" x2="760" y2="98" class="grid"/>
  <line x1="62" y1="142" x2="760" y2="142" class="grid"/>
  <line x1="62" y1="186" x2="760" y2="186" class="grid"/>

  <text x="22" y="230" class="axis">0%</text>
  <text x="12" y="190" class="axis">10%</text>
  <text x="12" y="146" class="axis">20%</text>
  <text x="12" y="102" class="axis">30%</text>
  <text x="12" y="58" class="axis">40%</text>

  <rect x="102" y="38" width="42" height="188" rx="10" fill="#3178C6"/>
  <rect x="194" y="76" width="42" height="150" rx="10" fill="#FFD43B"/>
  <rect x="286" y="140" width="42" height="86" rx="10" fill="#A855F7"/>
  <rect x="378" y="216" width="42" height="10" rx="4" fill="#F97316"/>
  <rect x="470" y="224" width="42" height="2.5" rx="1.25" fill="#8B5E3C"/>
  <rect x="562" y="224" width="42" height="2.1" rx="1.05" fill="#1572B6"/>
  <rect x="654" y="224" width="42" height="2.0" rx="1" fill="#F7DF1E"/>

  <text x="123" y="30" text-anchor="middle" class="value">42.83%</text>
  <text x="215" y="68" text-anchor="middle" class="value">33.90%</text>
  <text x="307" y="132" text-anchor="middle" class="value">19.64%</text>
  <text x="399" y="208" text-anchor="middle" class="value">2.23%</text>
  <text x="491" y="216" text-anchor="middle" class="value">0.53%</text>
  <text x="583" y="216" text-anchor="middle" class="value">0.45%</text>
  <text x="675" y="216" text-anchor="middle" class="value">0.43%</text>

  <text x="123" y="254" text-anchor="middle" class="label">TypeScript</text>
  <text x="215" y="254" text-anchor="middle" class="label">Python</text>
  <text x="307" y="254" text-anchor="middle" class="label">MQL4</text>
  <text x="399" y="254" text-anchor="middle" class="label">HTML</text>
  <text x="491" y="254" text-anchor="middle" class="label">Shell</text>
  <text x="583" y="254" text-anchor="middle" class="label">CSS</text>
  <text x="675" y="254" text-anchor="middle" class="label">JavaScript</text>
</svg>
