<svg xmlns="http://www.w3.org/2000/svg" width="780" height="238" viewBox="0 0 780 238" role="img" aria-label="Most used languages">
  <style>
    .label { font: 600 18px -apple-system,BlinkMacSystemFont,'Segoe UI',sans-serif; fill: #c9d1d9; }
    .muted { font: 600 18px -apple-system,BlinkMacSystemFont,'Segoe UI',sans-serif; fill: #8b949e; }
  </style>
  <defs>
    <clipPath id="bar-clip">
      <rect x="0" y="10" width="780" height="20" rx="10" ry="10"/>
    </clipPath>
  </defs>
  <g clip-path="url(#bar-clip)">
    <rect x="0" y="10" width="780" height="20" fill="#161b22"/>
    <rect x="0" y="10" width="334.07" height="20" fill="#3178C6"/>
    <rect x="334.07" y="10" width="264.42" height="20" fill="#FFD43B"/>
    <rect x="598.49" y="10" width="153.19" height="20" fill="#A855F7"/>
    <rect x="751.68" y="10" width="17.39" height="20" fill="#F97316"/>
    <rect x="769.07" y="10" width="4.13" height="20" fill="#8B5E3C"/>
    <rect x="773.20" y="10" width="3.51" height="20" fill="#1572B6"/>
    <rect x="776.71" y="10" width="3.29" height="20" fill="#F7DF1E"/>
  </g>
  <circle cx="12" cy="78" r="9" fill="#3178C6"/>
  <text x="34" y="85" class="label">TypeScript 42.83%</text>
  <circle cx="400" cy="78" r="9" fill="#F97316"/>
  <text x="422" y="85" class="label">HTML 2.23%</text>
  <circle cx="12" cy="130" r="9" fill="#FFD43B"/>
  <text x="34" y="137" class="label">Python 33.90%</text>
  <circle cx="400" cy="130" r="9" fill="#8B5E3C"/>
  <text x="422" y="137" class="label">Shell 0.53%</text>
  <circle cx="12" cy="182" r="9" fill="#A855F7"/>
  <text x="34" y="189" class="label">MQL4 19.64%</text>
  <circle cx="400" cy="182" r="9" fill="#1572B6"/>
  <text x="422" y="189" class="label">CSS 0.45%</text>
  <circle cx="12" cy="228" r="9" fill="#F7DF1E"/>
  <text x="34" y="235" class="muted">JavaScript 0.43%</text>
</svg>
